<svg fill="none" height="16" viewBox="0 0 16 16" width="16" xmlns="http://www.w3.org/2000/svg"><path clip-rule="evenodd" d="m2.34338 2.34315c-.19526.19526-.19526.51184 0 .7071l4.94974 4.94975-4.94974 4.9497c-.19526.1953-.19526.5119 0 .7072.19526.1952.51184.1952.7071 0l4.94975-4.94979 4.94977 4.94979c.1952.1952.5118.1952.7071 0 .1952-.1953.1952-.5119 0-.7072l-4.94976-4.9497 4.94976-4.94975c.1952-.19526.1952-.51184 0-.7071-.1953-.19527-.5119-.19527-.7071 0l-4.94977 4.94974-4.94975-4.94974c-.19526-.19527-.51184-.19527-.7071 0z" fill="#444" fill-rule="evenodd"/></svg>